<svg width="161" height="42" viewBox="0 0 161 42" fill="none" xmlns="http://www.w3.org/2000/svg">
<path d="M28.0875 7.53898C21.954 7.037 15.1221 7.03701 8.98854 7.53898C7.7046 7.64406 6.73178 8.76423 6.63524 10.1334C6.32564 14.5245 6.28445 21.103 6.56834 25.4896C6.66211 26.9386 7.77858 28.1822 9.28902 28.1822H14.024V34.8375L9.29868 34.8337C4.96383 34.8337 1.07288 31.1728 0.73678 25.9796C0.430791 21.2517 0.473053 14.3309 0.806621 9.59992C1.14092 4.85856 4.48711 1.22772 8.56962 0.893603C14.9821 0.3688 22.094 0.368798 28.5065 0.893601C32.589 1.22772 35.9352 4.85856 36.2695 9.59992C36.6031 14.3309 36.5884 21.2517 36.2825 25.9796C35.9464 31.1728 32.0644 34.8486 27.7296 34.8486L23.0531 34.8447L14.024 41.5V34.8375L23.0531 28.1822H27.7303C29.2406 28.1822 30.3571 26.9386 30.4509 25.4896C30.7348 21.103 30.7504 14.5245 30.4408 10.1334C30.3443 8.76423 29.3715 7.64406 28.0875 7.53898Z" fill="#FE5000"/>
<path d="M45.4639 29.7532H59.5948V25.7106H49.746V5.35828H45.4639V29.7532Z" fill="#D9ECFF"/>
<path d="M61.6433 29.753H65.8031V11.6311H61.6433V29.753ZM61.3069 6.89146C61.3069 8.45971 62.3162 9.64461 63.7232 9.64461C65.1302 9.64461 66.1395 8.45971 66.1395 6.89146C66.1395 5.32321 65.1302 4.13831 63.7232 4.13831C62.3162 4.13831 61.3069 5.32321 61.3069 6.89146Z" fill="#D9ECFF"/>
<path d="M82.1137 11.6309H77.954L74.5283 24.9087L71.1026 11.6309H66.9429L72.3567 29.7528H76.6999L82.1137 11.6309Z" fill="#D9ECFF"/>
<path d="M89.5363 30.1702C93.0537 30.1702 95.8983 27.7656 96.4488 24.4548H92.809C92.4114 25.7094 91.3103 26.7549 89.5363 26.7549C87.12 26.7549 86.1718 24.9079 86.1718 22.782V22.329H96.5712V19.1576C96.5712 14.8014 94.1854 11.2118 89.4751 11.2118C84.7037 11.2118 82.1344 14.6968 82.1344 19.6107V22.085C82.1344 27.1731 85.0401 30.1702 89.5363 30.1702ZM86.1718 18.8091C86.1718 16.3696 87.0894 14.5574 89.4751 14.5574C91.7079 14.5574 92.7479 16.2651 92.7479 18.5303V18.9834H86.1718V18.8091Z" fill="#D9ECFF"/>
<path d="M107.627 30.2405C113.04 30.2405 116.374 26.0585 116.588 21.075H112.612C112.337 23.8281 110.808 26.2328 107.627 26.2328C104.048 26.2328 102.519 23.4448 102.519 19.5416V15.5687C102.519 11.6655 104.048 8.8775 107.627 8.8775C110.808 8.8775 112.337 11.2822 112.612 14.0353H116.588C116.374 9.05175 113.04 4.86975 107.627 4.86975C101.173 4.86975 98.2672 9.5745 98.2672 15.8126V19.2976C98.2672 25.5358 101.173 30.2405 107.627 30.2405Z" fill="#D9ECFF"/>
<path d="M118.849 29.7533H123.009V19.0195C123.009 16.58 124.201 15.3254 126.068 15.3254C128.087 15.3254 128.973 16.824 128.973 18.915V29.7533H133.133V18.1483C133.133 13.8616 130.962 11.213 127.505 11.213C125.456 11.213 123.834 12.2237 123.009 13.7919V4.31274H118.849V29.7533Z" fill="#D9ECFF"/>
<path d="M141.074 30.1702C142.909 30.1702 144.927 29.299 145.662 28.0792V29.752H149.668V18.1818C149.668 13.9649 146.946 11.2118 142.97 11.2118C139.544 11.2118 137.066 13.0937 136.149 16.6136H140.002C140.431 15.6378 141.318 14.9059 142.755 14.9059C144.468 14.9059 145.508 16.1605 145.508 17.8333V20.3077C144.774 19.6107 143.367 18.7743 141.471 18.7743C137.648 18.7743 135.047 20.5865 135.047 24.5245C135.047 28.0444 137.494 30.1702 141.074 30.1702ZM142.144 27.0337C140.401 27.0337 139.085 26.0579 139.085 24.3851C139.085 22.7123 140.308 21.8062 142.266 21.8062C144.132 21.8062 145.508 22.7472 145.508 24.3503C145.508 25.8837 143.979 27.0337 142.144 27.0337Z" fill="#D9ECFF"/>
<path d="M157.441 29.7523H160.317V25.9188H158.634C157.533 25.9188 157.136 25.4309 157.136 24.246V15.4638H160.53V11.6303H157.136V6.68164H152.945V11.6303H150.681V15.4638H152.945V24.5945C152.945 27.8007 154.383 29.7523 157.441 29.7523Z" fill="#D9ECFF"/>
</svg>
