<svg width="66" height="64" viewBox="0 0 66 64" fill="none" xmlns="http://www.w3.org/2000/svg">
<g filter="url(#filter0_d_14_2570)">
<rect x="4.63855" y="4" width="57.3615" height="56" rx="28" fill="white"/>
</g>
<path d="M18.9694 42.5573C18.0938 42.5591 17.2334 42.3452 16.4761 41.9375C15.7188 41.5298 15.0917 40.9429 14.6589 40.2367C14.2327 39.5355 14.0202 38.74 14.044 37.9352C14.0679 37.1306 14.3272 36.3471 14.7943 35.6686L23.671 22.7357C24.1253 22.0406 24.7703 21.4699 25.5402 21.0818C26.3101 20.6937 27.1771 20.5021 28.0529 20.5267C28.928 20.5461 29.7818 20.781 30.527 21.2071C31.2721 21.6333 31.8819 22.2355 32.2938 22.9521C33.1212 24.4038 33.0178 26.1504 32.0267 27.5131L23.1557 40.4461C22.7058 41.0964 22.0863 41.631 21.3545 42C20.6226 42.3691 19.8023 42.5608 18.9694 42.5573Z" fill="#F62B54"/>
<path d="M34.0062 42.5574C32.2158 42.5574 30.5683 41.6693 29.7031 40.2419C29.2779 39.5426 29.0658 38.7491 29.0897 37.9465C29.1135 37.1439 29.3724 36.3624 29.8386 35.6859L38.6987 22.7823C39.1463 22.0774 39.7891 21.4965 40.5602 21.0998C41.3315 20.7031 42.203 20.505 43.0845 20.5261C44.8901 20.5628 46.5263 21.4998 47.3538 22.9655C48.1757 24.4312 48.0553 26.1884 47.0341 27.5476L38.1758 40.4513C37.7273 41.0989 37.1103 41.6313 36.3815 41.9994C35.6528 42.3675 34.8359 42.5594 34.0062 42.5574Z" fill="#FFCC00"/>
<path d="M48.8352 43.4754C51.4319 43.4754 53.5369 41.4203 53.5369 38.8853C53.5369 36.3502 51.4319 34.2951 48.8352 34.2951C46.2385 34.2951 44.1334 36.3502 44.1334 38.8853C44.1334 41.4203 46.2385 43.4754 48.8352 43.4754Z" fill="#00CA72"/>
<defs>
<filter id="filter0_d_14_2570" x="0.63855" y="0" width="65.3615" height="64" filterUnits="userSpaceOnUse" color-interpolation-filters="sRGB">
<feFlood flood-opacity="0" result="BackgroundImageFix"/>
<feColorMatrix in="SourceAlpha" type="matrix" values="0 0 0 0 0 0 0 0 0 0 0 0 0 0 0 0 0 0 127 0" result="hardAlpha"/>
<feOffset/>
<feGaussianBlur stdDeviation="2"/>
<feComposite in2="hardAlpha" operator="out"/>
<feColorMatrix type="matrix" values="0 0 0 0 0.854902 0 0 0 0 0.854902 0 0 0 0 0.968627 0 0 0 0.32 0"/>
<feBlend mode="normal" in2="BackgroundImageFix" result="effect1_dropShadow_14_2570"/>
<feBlend mode="normal" in="SourceGraphic" in2="effect1_dropShadow_14_2570" result="shape"/>
</filter>
</defs>
</svg>
