<svg width="65" height="64" viewBox="0 0 65 64" fill="none" xmlns="http://www.w3.org/2000/svg">
<g filter="url(#filter0_d_17_3059)">
<rect x="4.69775" y="4" width="56" height="56" rx="28" fill="white"/>
</g>
<path d="M16 40.4646L22.159 36.1002C25.4312 40.0507 28.9077 41.8716 32.7774 41.8716C36.6265 41.8716 40.0047 40.0722 43.1295 36.1528L49.3764 40.412C44.8678 46.0638 39.2649 49.05 32.7774 49.05C26.3107 49.05 20.6535 46.0829 16 40.4646Z" fill="url(#paint0_linear_17_3059)"/>
<path d="M32.7565 21.4946L21.794 30.2332L16.7266 24.7967L32.7797 12L48.7061 24.8063L43.6155 30.2236L32.7565 21.4946Z" fill="url(#paint1_linear_17_3059)"/>
<defs>
<filter id="filter0_d_17_3059" x="0.697754" y="0" width="64" height="64" filterUnits="userSpaceOnUse" color-interpolation-filters="sRGB">
<feFlood flood-opacity="0" result="BackgroundImageFix"/>
<feColorMatrix in="SourceAlpha" type="matrix" values="0 0 0 0 0 0 0 0 0 0 0 0 0 0 0 0 0 0 127 0" result="hardAlpha"/>
<feOffset/>
<feGaussianBlur stdDeviation="2"/>
<feComposite in2="hardAlpha" operator="out"/>
<feColorMatrix type="matrix" values="0 0 0 0 0.854902 0 0 0 0 0.854902 0 0 0 0 0.968627 0 0 0 0.32 0"/>
<feBlend mode="normal" in2="BackgroundImageFix" result="effect1_dropShadow_17_3059"/>
<feBlend mode="normal" in="SourceGraphic" in2="effect1_dropShadow_17_3059" result="shape"/>
</filter>
<linearGradient id="paint0_linear_17_3059" x1="16" y1="44.9074" x2="49.3764" y2="44.9074" gradientUnits="userSpaceOnUse">
<stop stop-color="#8930FD"/>
<stop offset="1" stop-color="#49CCF9"/>
</linearGradient>
<linearGradient id="paint1_linear_17_3059" x1="16.7266" y1="24.4004" x2="48.7061" y2="24.4004" gradientUnits="userSpaceOnUse">
<stop stop-color="#FF02F0"/>
<stop offset="1" stop-color="#FFC800"/>
</linearGradient>
</defs>
</svg>
